#!OML:ASF F:\VICON\USERDATA\INSTALL\rory3\rory3.ASF
:FULLY-SPECIFIED
:DEGREES
114
root -11.7316 17.9874 1.84011 178.379 -12.9734 175.66
lowerback 9.353 -4.50746 -7.36312
upperback 0.388806 -6.77239 1.56821
thorax -3.77944 -3.25128 6.55791
lowerneck 6.33448 -24.5674 -15.8833
upperneck 33.4063 -34.279 11.8477
head 16.1104 -14.7294 2.31487
rclavicle -5.8393e-015 -8.74653e-015
rhumerus -35.7093 -16.32 -76.6145
rradius 32.4773
rwrist 1.41667
rhand -14.5996 5.93006
rfingers 7.12502
rthumb 11.5509 -23.7316
lclavicle -5.8393e-015 -8.74653e-015
lhumerus -32.6173 4.91265 81.3421
lradius 23.8609
lwrist -9.87409
lhand -16.7032 31.5819
lfingers 7.12502
lthumb 9.52171 61.3468
rfemur -4.35156 2.88254 19.5819
rtibia 54.1744
rfoot -12.1855 11.4454
rtoes -7.38567
lfemur -5.38149 0.115145 -23.3972
ltibia 26.541
lfoot -1.12724 -24.0024
ltoes 15.6944
115
root -11.6993 17.9908 1.92533 178.43 -13.244 175.88
lowerback 9.28692 -4.41054 -7.07749
upperback 0.390953 -6.60542 1.6165
thorax -3.7931 -3.17215 6.42878
lowerneck 6.39528 -24.5956 -15.9171
upperneck 33.3291 -34.3182 11.9184
head 16.094 -14.747 2.34183
rclavicle -7.24322e-014 -4.77083e-015
rhumerus -35.3163 -16.0793 -76.7989
rradius 32.4127
rwrist 1.38863
rhand -14.7119 6.497
rfingers 7.12502
rthumb 11.4426 -23.1707
lclavicle -7.24322e-014 -4.77083e-015
lhumerus -32.8943 5.39201 80.6742
lradius 23.3137
lwrist -10.2789
lhand -16.5623 31.442
lfingers 7.12502
lthumb 9.65771 61.2006
rfemur -3.36907 3.58145 20.1654
rtibia 52.7671
rfoot -11.4564 11.6429
rtoes -6.74819
lfemur -6.0031 -0.0286468 -23.1129
ltibia 26.8241
lfoot -0.978133 -24.1326
ltoes 15.5368
116
root -11.6688 17.9925 2.01142 178.554 -13.5892 175.913
lowerback 9.20339 -4.35688 -6.89187
upperback 0.409596 -6.50875 1.58397
thorax -3.76621 -3.12909 6.27318
lowerneck 6.2948 -24.6166 -15.9169
upperneck 33.3509 -34.3506 11.9606
head 16.1438 -14.7422 2.33561
rclavicle -4.02042e-014 2.38542e-015
rhumerus -34.8675 -15.6659 -77.2143
rradius 32.473
rwrist 2.02782
rhand -15.5922 6.00805
rfingers 7.12502
rthumb 10.5935 -23.705
lclavicle -4.02042e-014 2.38542e-015
lhumerus -33.1554 6.20152 79.8079
lradius 22.8032
lwrist -10.9889
lhand -16.2566 31.0214
lfingers 7.12502
lthumb 9.95258 60.7661
rfemur -2.43895 4.13985 20.4948
rtibia 51.3174
rfoot -10.6194 11.8198
rtoes -6.86765
lfemur -6.64983 -0.203809 -23.0314
ltibia 27.09
lfoot -0.641152 -24.2688
ltoes 16.1194
117
root -11.6369 17.997 2.10034 178.775 -13.9038 175.878
lowerback 9.10484 -4.29088 -6.75598
upperback 0.390321 -6.40021 1.52612
thorax -3.76942 -3.07594 6.11857
lowerneck 6.12058 -24.6493 -15.821
upperneck 33.4227 -34.3828 11.9467
head 16.1957 -14.7227 2.29416
rclavicle 2.13694e-014 7.15625e-015
rhumerus -34.385 -15.3442 -77.5384
rradius 32.5191
rwrist 2.81233
rhand -15.6875 5.59411
rfingers 7.12502
rthumb 10.5016 -24.1236
lclavicle 2.13694e-014 7.15625e-015
lhumerus -33.3362 6.92989 78.9298
lradius 22.2439
lwrist -11.6296
lhand -16.3813 30.7702
lfingers 7.12502
lthumb 9.83232 60.5206
rfemur -1.6238 4.70691 20.7367
rtibia 49.8102
rfoot -9.47072 11.953
rtoes -6.10872
lfemur -7.40568 -0.284821 -23.0106
ltibia 27.3619
lfoot -0.323623 -24.4947
ltoes 16.5907
118
root -11.6022 18.0008 2.18928 178.976 -14.1329 176.131
lowerback 8.96923 -4.20521 -6.38813
upperback 0.315237 -6.23483 1.57737
thorax -3.82999 -2.99325 5.94449
lowerneck 6.03059 -24.6717 -15.653
upperneck 33.5088 -34.3309 11.7311
head 16.1461 -14.688 2.2091
rclavicle 2.99668e-014 3.18055e-015
rhumerus -34.0229 -15.19 -77.6549
rradius 32.499
rwrist 3.4026
rhand -15.5043 5.92798
rfingers 7.12502
rthumb 10.6784 -23.7807
lclavicle 2.99668e-014 3.18055e-015
lhumerus -33.628 7.63789 78.1416
lradius 21.579
lwrist -11.779
lhand -17.7523 29.6055
lfingers 7.12502
lthumb 8.50942 59.414
rfemur -0.888316 5.40597 21.3043
rtibia 48.2132
rfoot -7.94109 12.1795
rtoes -5.08744
lfemur -8.22812 -0.38763 -22.6784
ltibia 27.6454
lfoot -0.13199 -24.6449
ltoes 16.5053
119
root -11.5671 18.0012 2.27831 179.112 -14.3933 176.373
lowerback 8.89691 -4.11888 -6.01
upperback 0.211101 -6.07355 1.59993
thorax -3.95814 -2.90931 5.74276
lowerneck 5.82649 -13.3137 -14.3413
upperneck 27.5853 -40.1734 17.7024
head 15.8241 -20.6215 2.30902
rclavicle 1.61016e-014 -3.4191e-014
rhumerus -33.856 -14.9047 -77.8387
rradius 32.6757
rwrist 3.60742
rhand -15.631 5.87162
rfingers 7.12502
rthumb 10.5562 -23.8433
lclavicle 1.61016e-014 -3.4191e-014
lhumerus -34.0698 8.02686 77.4469
lradius 21.0498
lwrist -11.2894
lhand -19.5436 27.7791
lfingers 7.12502
lthumb 6.78041 57.6506
rfemur -0.0955408 6.03926 21.8417
rtibia 46.5563
rfoot -6.2792 12.5083
rtoes -5.3823
lfemur -8.99473 -0.49717 -22.3615
ltibia 27.9595
lfoot 0.0954238 -24.8426
ltoes 16.4562
120
root -11.5352 18.0041 2.37156 179.31 -14.7174 176.574
lowerback 8.76377 -4.06312 -5.62631
upperback 0.172876 -5.95007 1.63095
thorax -3.97575 -2.85245 5.54003
lowerneck 5.9875 -13.3524 -14.4024
upperneck 27.4109 -40.1461 17.9321
head 15.7928 -20.6065 2.42465
rclavicle -6.85807e-015 9.54166e-015
rhumerus -33.4973 -14.4297 -78.1066
rradius 32.875
rwrist 3.44621
rhand -15.8126 5.53272
rfingers 7.12502
rthumb 10.381 -24.191
lclavicle -6.85807e-015 9.54166e-015
lhumerus -34.3268 8.40045 76.7971
lradius 20.7078
lwrist -11.3285
lhand -19.6836 27.8934
lfingers 7.12502
lthumb 6.64522 57.7692
rfemur 0.588775 6.53547 22.2701
rtibia 44.8322
rfoot -4.48802 12.9848
rtoes -5.04848
lfemur -9.84055 -0.693446 -22.0968
ltibia 28.3165
lfoot 0.14495 -25.0354
ltoes 15.7652
121
root -11.5032 18.0055 2.47298 179.592 -14.8871 176.866
lowerback 8.55103 -3.95856 -5.13369
upperback 0.185765 -5.74734 1.7068
thorax -3.90967 -2.76369 5.30584
lowerneck 5.88754 -13.4916 -14.4955
upperneck 27.2911 -40.1806 18.1035
head 15.8374 -20.5713 2.46477
rclavicle -4.73604e-014 -3.97569e-015
rhumerus -32.8688 -13.9948 -78.3747
rradius 32.9315
rwrist 3.22835
rhand -16.019 6.16567
rfingers 7.12502
rthumb 10.1818 -23.5679
lclavicle -4.73604e-014 -3.97569e-015
lhumerus -34.3612 9.31901 75.9747
lradius 20.2854
lwrist -12.1464
lhand -19.1594 28.3131
lfingers 7.12502
lthumb 7.1513 58.1723
rfemur 1.03809 7.1715 22.7514
rtibia 43.1009
rfoot -2.58105 13.6939
rtoes -2.77123
lfemur -10.8294 -0.833884 -21.7286
ltibia 28.6429
lfoot 0.309789 -25.1287
ltoes 15.2311
122
root -11.4672 18.0074 2.57495 179.882 -15.0127 177.156
lowerback 8.40043 -3.83852 -4.6412
upperback 0.145589 -5.52901 1.78448
thorax -3.93269 -2.66186 5.08111
lowerneck 5.74995 -13.6092 -14.5998
upperneck 27.3001 -40.1882 18.1563
head 15.9108 -20.5286 2.46538
rclavicle -3.03147e-015 -1.35174e-014
rhumerus -32.3522 -13.7282 -78.5522
rradius 32.9575
rwrist 3.13808
rhand -16.1826 7.33163
rfingers 7.12502
rthumb 10.024 -22.4097
lclavicle -3.03147e-015 -1.35174e-014
lhumerus -34.4079 10.1039 75.187
lradius 19.9026
lwrist -12.4041
lhand -18.613 28.7814
lfingers 7.12502
lthumb 7.67868 58.622
rfemur 1.40319 7.83675 23.2198
rtibia 41.3666
rfoot -1.11806 14.7579
rtoes 0.196877
lfemur -11.8274 -0.927939 -21.3347
ltibia 28.9154
lfoot 1.0553 -25.1423
ltoes 16.5363
123
root -11.4231 18.0041 2.67307 180.007 -15.3828 177.331
lowerback 8.50735 -3.79077 -4.34756
upperback 0.0651024 -5.43999 1.80277
thorax -4.1122 -2.61426 4.94221
lowerneck 5.7768 -13.6387 -14.564
upperneck 27.3269 -40.151 18.1933
head 15.9171 -20.4981 2.48893
rclavicle 5.10877e-014 -4.21423e-014
rhumerus -32.1358 -13.321 -78.7938
rradius 33.1255
rwrist 2.89357
rhand -16.4853 7.59214
rfingers 7.12502
rthumb 9.73194 -22.163
lclavicle 5.10877e-014 -4.21423e-014
lhumerus -34.6676 10.5748 74.4076
lradius 19.7047
lwrist -12.3442
lhand -18.0183 29.3932
lfingers 7.12502
lthumb 8.25262 59.212
rfemur 1.98281 8.30649 23.6616
rtibia 39.6815
rfoot -0.534131 15.7945
rtoes 5.70526
lfemur -12.5804 -1.17355 -21.0094
ltibia 29.1357
lfoot 2.38352 -25.185
ltoes 18.8369
124
root -11.376 18.0006 2.76954 180.102 -15.834 177.425
lowerback 8.62754 -3.74682 -4.18253
upperback -0.000181382 -5.36899 1.80589
thorax -4.27041 -2.57479 4.86071
lowerneck 5.93758 -13.7078 -14.5403
upperneck 27.2716 -40.1553 18.2289
head 15.8688 -20.4989 2.52645
rclavicle 4.46272e-014 -3.57812e-014
rhumerus -31.9789 -12.9151 -79.015
rradius 33.3944
rwrist 2.69756
rhand -16.7116 7.16097
rfingers 7.12502
rthumb 9.51357 -22.6043
lclavicle 4.46272e-014 -3.57812e-014
lhumerus -34.9678 11.4059 73.4624
lradius 19.3505
lwrist -13.195
lhand -17.7644 29.9183
lfingers 7.12502
lthumb 8.4977 59.7274
rfemur 2.59211 8.56737 24.0128
rtibia 38.1065
rfoot -1.24476 15.8997
rtoes 9.53879
lfemur -13.2039 -1.39284 -20.76
ltibia 29.2489
lfoot 3.18905 -25.4799
ltoes 19.0246
125
root -11.3278 17.9978 2.87153 180.213 -16.2714 177.518
lowerback 8.71916 -3.71801 -4.03634
upperback -0.0200753 -5.31815 1.85884
thorax -4.35619 -2.54921 4.83851
lowerneck 6.09028 -13.7499 -14.6828
upperneck 27.1788 -40.1213 18.3417
head 15.8569 -20.4867 2.61022
rclavicle 4.47266e-014 7.95139e-015
rhumerus -31.7022 -12.4665 -79.2075
rradius 33.7138
rwrist 2.52433
rhand -16.8585 7.11924
rfingers 7.12502
rthumb 9.3719 -22.6524
lclavicle 4.47266e-014 7.95139e-015
lhumerus -35.1537 12.9048 72.3209
lradius 18.7539
lwrist -14.9248
lhand -17.2913 30.896
lfingers 7.12502
lthumb 8.95423 60.686
rfemur 3.12738 8.50343 24.3078
rtibia 36.7191
rfoot -3.42288 14.7983
rtoes 4.3546
lfemur -13.8102 -1.55898 -20.5259
ltibia 29.2099
lfoot 3.39607 -25.945
ltoes 17.6422
126
root -11.2787 17.9978 2.97963 180.361 -16.8209 177.486
lowerback 8.92967 -3.72098 -3.95655
upperback -0.0541991 -5.32237 1.83771
thorax -4.5186 -2.54662 4.79266
lowerneck 6.13588 -13.8077 -14.6542
upperneck 27.1363 -40.1354 18.4275
head 15.8542 -20.4727 2.6415
rclavicle 1.92821e-014 3.97569e-015
rhumerus -31.3874 -12.1244 -79.4413
rradius 34.0039
rwrist 2.26163
rhand -16.7644 7.21859
rfingers 7.12502
rthumb 9.46266 -22.549
lclavicle 1.92821e-014 3.97569e-015
lhumerus -35.2904 13.669 71.4909
lradius 18.3793
lwrist -15.6382
lhand -17.1512 31.184
lfingers 7.12502
lthumb 9.08942 60.9682
rfemur 3.54146 8.21472 24.4537
rtibia 35.5553
rfoot -5.22094 13.3895
rtoes -1.22724
lfemur -14.3762 -1.79686 -20.4244
ltibia 29.0543
lfoot 3.93005 -26.3618
ltoes 17.2106
127
root -11.2279 18.0002 3.08736 180.574 -17.3995 177.237
lowerback 9.16603 -3.72729 -4.1092
upperback -0.0802006 -5.35734 1.777
thorax -4.66675 -2.55461 4.84014
lowerneck 5.98891 -13.9046 -14.6199
upperneck 27.2474 -40.2089 18.384
head 15.9337 -20.4578 2.5794
rclavicle 9.19379e-015 -1.98785e-014
rhumerus -31.0176 -11.9418 -79.6407
rradius 34.162
rwrist 2.1775
rhand -16.9081 7.27135
rfingers 7.12502
rthumb 9.32399 -22.5024
lclavicle 9.19379e-015 -1.98785e-014
lhumerus -35.4203 13.9116 70.9707
lradius 18.2966
lwrist -15.6837
lhand -17.3759 30.5974
lfingers 7.12502
lthumb 8.87264 60.3909
rfemur 3.75914 7.90213 24.3657
rtibia 34.5838
rfoot -5.75312 12.8479
rtoes 0.446701
lfemur -14.9025 -2.01534 -20.5468
ltibia 28.8392
lfoot 4.7949 -26.7034
ltoes 17.5614
128
root -11.1805 18.0079 3.20188 180.89 -17.747 177.168
lowerback 9.27293 -3.67966 -3.99993
upperback -0.134288 -5.28602 1.75687
thorax -4.80283 -2.51544 4.76256
lowerneck 5.81156 -13.9696 -14.7184
upperneck 27.3749 -40.32 18.427
head 16.0973 -20.4604 2.53485
rclavicle -1.09829e-014 1.27222e-014
rhumerus -30.6867 -11.6653 -79.841
rradius 34.4321
rwrist 2.01933
rhand -17.0777 7.64443
rfingers 7.12502
rthumb 9.16036 -22.1366
lclavicle -1.09829e-014 1.27222e-014
lhumerus -35.447 14.3855 70.4355
lradius 18.2288
lwrist -15.9935
lhand -17.3711 30.4554
lfingers 7.12502
lthumb 8.87729 60.2487
rfemur 3.56967 7.56286 24.3143
rtibia 33.7625
rfoot -5.69076 13.0116
rtoes 5.2234
lfemur -15.598 -2.15927 -20.4828
ltibia 28.5151
lfoot 5.79551 -26.9282
ltoes 17.8089
